<svg xmlns="http://www.w3.org/2000/svg" viewBox="10 15 100 70" width="100%">
  <circle cx="20" cy="35" r="4" fill="#3b82f6" />
  <circle cx="20" cy="50" r="4" fill="#3b82f6" />
  <circle cx="35" cy="27" r="4" fill="#a855f7" />
  <circle cx="35" cy="42" r="4" fill="#a855f7" />
  <circle cx="35" cy="58" r="4" fill="#a855f7" />
  <circle cx="50" cy="42" r="4" fill="#22c55e" />
  <line x1="24" y1="35" x2="31" y2="28" stroke="#cbd5e1" stroke-width="1" />
  <line x1="24" y1="35" x2="31" y2="42" stroke="#cbd5e1" stroke-width="1" />
  <line x1="24" y1="50" x2="31" y2="42" stroke="#cbd5e1" stroke-width="1" />
  <line x1="24" y1="50" x2="31" y2="58" stroke="#cbd5e1" stroke-width="1" />
  <line x1="39" y1="27" x2="46" y2="42" stroke="#cbd5e1" stroke-width="1" />
  <line x1="39" y1="42" x2="46" y2="42" stroke="#cbd5e1" stroke-width="1" />
  <line x1="39" y1="58" x2="46" y2="42" stroke="#cbd5e1" stroke-width="1" />
  <circle cx="80" cy="42" r="8" fill="#ec4899" stroke="#db2777" stroke-width="2" />
  <path d="M 88 42 A 8 8 0 1 1 80 34" fill="none" stroke="#db2777" stroke-width="1.5" />
  <polygon points="80,34 76,38 84,38" fill="#db2777" />
</svg>
